<svg xmlns="http://www.w3.org/2000/svg" width="80" height="80"><g fill="none"><path d="M0 0h80v80H0z"/><path fill="#383838" d="M19 40v-2h-3a4 4 0 01-4-4V19a4 4 0 014-4h3v-4a2 2 0 012-2h38a2 2 0 012 2v4h3a4 4 0 014 4v15a4 4 0 01-4 4h-3v2h3a4 4 0 014 4v15a4 4 0 01-4 4h-3v6a2 2 0 01-2 2H21a2 2 0 01-2-2v-6h-3a4 4 0 01-4-4V44a4 4 0 014-4h3zm45 2H16a2 2 0 00-2 2v15a2 2 0 002 2h48a2 2 0 002-2V44a2 2 0 00-2-2zm-43-2h38v-2H21v2zm0 23v6h38v-6H21zm43-46H16a2 2 0 00-2 2v15a2 2 0 002 2h48a2 2 0 002-2V19a2 2 0 00-2-2zm-5-2v-4H21v4h38zM40 29a2 2 0 012 2v2h-4v-2a2 2 0 012-2zm-6-9h2v7h-2v-7zm10 0h2v7h-2v-7zm-4 34a2 2 0 012 2v2h-4v-2a2 2 0 012-2zm-6-9h2v7h-2v-7zm10 0h2v7h-2v-7z"/><path fill="#00D089" d="M24 67a1 1 0 110-2 1 1 0 010 2zm4 0a1 1 0 110-2 1 1 0 010 2zm4 0a1 1 0 110-2 1 1 0 010 2zm4 0a1 1 0 110-2 1 1 0 010 2zm4 0a1 1 0 110-2 1 1 0 010 2zm4 0a1 1 0 110-2 1 1 0 010 2zm4 0a1 1 0 110-2 1 1 0 010 2zm4 0a1 1 0 110-2 1 1 0 010 2zm4 0a1 1 0 110-2 1 1 0 010 2z"/></g></svg>