<svg xmlns="http://www.w3.org/2000/svg" width="80" height="80"><g fill="none" fill-rule="evenodd"><path d="M0 0h80v80H0z"/><g fill-rule="nonzero"><path fill="#383838" d="M35.727 9c-4.84 0-9.192 2.648-12.348 5.223-3.156 2.578-5.168 5.164-5.168 5.164l-.902 1.156 1.41.414s.547.152 1.203.824c.652.668 1.351 1.809 1.351 3.969 0 2.8.43 5.063.645 6.02A2.741 2.741 0 0021 33.8c0 .65.195 1.204.355 1.747.079.273.157.527.207.719.051.191.063.379.063.234 0 1.36 1.14 2.422 2.484 2.469A12.946 12.946 0 0029 48.519v3.731c-1.441.438-4.902 1.555-8.426 3.219-2.3 1.086-4.613 2.394-6.414 3.945C12.36 60.964 11 62.82 11 65v6h52v-6c0-2.18-1.36-4.035-3.16-5.586-1.8-1.55-4.113-2.86-6.414-3.945-3.524-1.664-6.985-2.782-8.426-3.219v-3.727a12.948 12.948 0 004.89-9.554c1.344-.047 2.485-1.11 2.485-2.469 0 .145.012-.043.063-.234.05-.192.128-.446.207-.72.16-.542.355-1.097.355-1.745 0-.82-.371-1.543-.941-2.055.183-1.055.941-5.57.941-8.746 0-3.594-1.344-6.168-3.156-7.766-1.63-1.43-3.543-2.004-5.239-2.125-.273-.433-.757-1.113-1.761-1.898C41.402 10.09 39.09 9 35.727 9zm0 2c2.937 0 4.761.91 5.882 1.79 1.125.878 1.496 1.651 1.496 1.651l.274.559H44c1.332 0 3.125.508 4.52 1.738C49.918 17.968 51 19.891 51 23c0 2.79-.664 6.86-.86 8h-.015c-.086 0-.07.02-.125.027V28c0-3.422-1.398-5.723-2.805-7.086-1.406-1.363-2.879-1.863-2.879-1.863l-.57-.192-.437.418s-.63.618-2.149 1.313C39.64 21.285 37.29 22 34 22c-1.8 0-4.172.637-6.23 2.074-2.051 1.434-3.758 3.778-3.766 6.957-.055-.008-.043-.031-.129-.031-.023 0-.047.008-.07.008a25.783 25.783 0 01-.532-5.258c0-2.617-.937-4.355-1.918-5.363-.418-.43-.511-.356-.875-.57.692-.813 1.977-2.255 4.165-4.04C27.617 13.352 31.633 11 35.727 11zM44 21.156c.242.094.875.293 1.805 1.192C46.898 23.41 48 25.105 48 28v6.305l1.504-.883c.258-.149.496-.281.664-.367.02-.012.027-.012.047-.024.457.047.785.367.785.766v.004c0 .074-.121.66-.273 1.183-.079.258-.157.52-.223.758-.063.238-.129.406-.129.758 0 .266-.219.5-.563.5H48v1.367c0 5.422-3.91 9.903-9.059 10.82l-.285.047-.215.2c-.39.355-.882.566-1.441.566s-1.05-.21-1.441-.566l-.215-.2-.285-.047C29.91 48.27 26 43.79 26 38.367V37h-1.813c-.343 0-.562-.234-.562-.5 0-.352-.066-.52-.133-.758-.066-.238-.144-.5-.222-.758-.153-.523-.27-1.109-.27-1.183 0-.403.328-.723.785-.77.02.012.027.012.047.024.168.086.406.218.664.367l1.504.883V31.05c0-2.492 1.242-4.168 2.914-5.336C30.586 24.547 32.711 24 34 24c3.582 0 6.23-.785 7.992-1.59 1.309-.598 1.653-.965 2.008-1.254zm18.836 7.235a1 1 0 00-.559 1.836A12.973 12.973 0 0168 41c0 4.492-2.27 8.438-5.723 10.773-.3.2-.472.543-.449.903.024.36.242.68.567.836a.997.997 0 001.003-.082A14.991 14.991 0 0070 41c0-5.164-2.617-9.734-6.602-12.43a.993.993 0 00-.562-.18zm-2.8 4.14a1 1 0 00-.556 1.84A7.988 7.988 0 0163 41a7.988 7.988 0 01-3.52 6.629 1.003 1.003 0 00-.476.91 1.001 1.001 0 001.594.746 9.995 9.995 0 000-16.57.997.997 0 00-.563-.184zM31.5 33a1.5 1.5 0 100 3 1.5 1.5 0 000-3zm11 0a1.5 1.5 0 100 3 1.5 1.5 0 000-3zm14.734 3.676a1.002 1.002 0 00-.554 1.84A2.982 2.982 0 0158 41a2.982 2.982 0 01-1.32 2.484 1.013 1.013 0 00-.47.91c.024.364.243.688.571.844a.991.991 0 001.016-.097A4.988 4.988 0 0060 41a4.988 4.988 0 00-2.203-4.14.997.997 0 00-.563-.184zM31 49.824c1.066.559 2.219.989 3.441 1.235.707.562 1.582.941 2.559.941.973 0 1.844-.379 2.547-.938A12.72 12.72 0 0043 49.828v5.86C42.879 55.93 41.297 59 37 59s-5.879-3.07-6-3.313v-5.863zm-2 4.531v1.88l.105.214S31.465 61 37 61s7.895-4.55 7.895-4.55l.105-.216v-1.879c1.605.504 4.547 1.497 7.574 2.926 2.2 1.04 4.387 2.293 5.961 3.649C60.11 62.285 61 63.68 61 65v4H13v-4c0-1.32.89-2.715 2.465-4.07 1.574-1.356 3.762-2.61 5.96-3.649 3.028-1.43 5.97-2.422 7.575-2.926z"/><path fill="#00D089" d="M17 65c.55 0 1 .45 1 1s-.45 1-1 1-1-.45-1-1 .45-1 1-1zm4 0c.55 0 1 .45 1 1s-.45 1-1 1-1-.45-1-1 .45-1 1-1zm4 0c.55 0 1 .45 1 1s-.45 1-1 1-1-.45-1-1 .45-1 1-1zm4 0c.55 0 1 .45 1 1s-.45 1-1 1-1-.45-1-1 .45-1 1-1zm4 0c.55 0 1 .45 1 1s-.45 1-1 1-1-.45-1-1 .45-1 1-1zm4 0c.55 0 1 .45 1 1s-.45 1-1 1-1-.45-1-1 .45-1 1-1zm4 0c.55 0 1 .45 1 1s-.45 1-1 1-1-.45-1-1 .45-1 1-1zm4 0c.55 0 1 .45 1 1s-.45 1-1 1-1-.45-1-1 .45-1 1-1zm4 0c.55 0 1 .45 1 1s-.45 1-1 1-1-.45-1-1 .45-1 1-1zm4 0c.55 0 1 .45 1 1s-.45 1-1 1-1-.45-1-1 .45-1 1-1zm4 0c.55 0 1 .45 1 1s-.45 1-1 1-1-.45-1-1 .45-1 1-1z"/></g></g></svg>