<svg xmlns="http://www.w3.org/2000/svg" width="80" height="80"><g fill="none" fill-rule="evenodd"><path d="M0 0h80v80H0z"/><g fill-rule="nonzero"><path fill="#383838" d="M40 13c-13.889 0-26.944 5.412-36.762 15.238l-.707.707L40 66.415l5.695-5.696a18.99 18.99 0 01-.974-1.854L40 63.585 5.365 28.952C14.72 19.946 26.98 15 40 15c13.021 0 25.28 4.946 34.635 13.951l-4.77 4.768c.638.29 1.256.62 1.854.976l5.75-5.75-.707-.709C66.944 18.411 53.889 13 40 13zm22 22c-8.822 0-16 7.178-16 16s7.178 16 16 16 16-7.178 16-16-7.178-16-16-16zm0 2c7.72 0 14 6.28 14 14s-6.28 14-14 14-14-6.28-14-14c0-1.75.336-3.42.926-4.967.01-.019.027-.03.035-.05.012-.03.008-.062.018-.092C51.025 40.693 56.084 37 62 37z"/><path fill="#00D089" d="M68.779 45.227l-9.494 9.289-3.646-3.717-1.428 1.398 5.045 5.145 10.922-10.686zM40 28a1 1 0 110 2 1 1 0 010-2zm3.627.178a1 1 0 01-.195 1.99 1 1 0 11.195-1.99zm-7.254.002a1 1 0 11.197 1.99 1 1 0 01-.197-1.99zm-3.592.53a1 1 0 11.39 1.962 1 1 0 01-.39-1.961zm14.438 0a1 1 0 11-.392 1.963 1 1 0 01.392-1.962zm-17.565.845a1 1 0 11-.211 1.992 1 1 0 01.211-1.992zm20.692 0a1 1 0 11.209 1.993 1 1 0 01-.21-1.993zM26.23 30.74a.999.999 0 11-.93 1.383 1 1 0 01.93-1.383zm27.54 0a1 1 0 11.014 2 1 1 0 01-.014-2zm-30.833 1.516a1 1 0 11.18 1.99 1 1 0 01-.18-1.99zm34.126 0a.998.998 0 01.79 1.465 1 1 0 11-.79-1.465zM19.81 34.084a1 1 0 01.744 1.814 1 1 0 11-.744-1.814zm-2.551 2.092a1.001 1.001 0 01.535 1.77.999.999 0 11-1.268-1.548.996.996 0 01.733-.222zM40 43a1 1 0 110 2 1 1 0 010-2zm4.293.422a1 1 0 11-.392 1.963 1 1 0 01.392-1.963zm-8.586.002a1 1 0 11.392 1.959 1 1 0 01-.392-1.96zm-3.736 1.174c.39.002.759.236.918.619a1.001 1.001 0 11-.918-.62zm-3.826 1.959a1 1 0 11.377 1.967 1 1 0 01-.377-1.967z"/></g></g></svg>