<svg xmlns="http://www.w3.org/2000/svg" width="80" height="80"><g fill="none" fill-rule="evenodd"><path d="M0 0h80v80H0z"/><g fill-rule="nonzero"><path fill="#383838" d="M40 8C27.309 8 17 18.309 17 31c0 7.285 3.195 11.852 6.25 15.29 1.531 1.718 3.02 3.183 4.078 4.581C28.387 52.266 29 53.535 29 55v10c0 2.75 2.25 5 5 5h1.102c.468 2.273 2.492 4 4.898 4 2.406 0 4.43-1.727 4.898-4H46c2.75 0 5-2.25 5-5V55c0-1.465.613-2.734 1.672-4.129 1.058-1.398 2.547-2.863 4.078-4.582C59.805 42.852 63 38.285 63 31 63 18.309 52.691 8 40 8zm0 2c11.61 0 21 9.39 21 21 0 6.715-2.805 10.648-5.75 13.96-1.469 1.657-2.98 3.13-4.172 4.7C49.887 51.234 49 52.965 49 55v1h-5V35.797c1.707-.457 3-1.953 3-3.797 0-2.2-1.8-4-4-4-1.21 0-2.266.578-3 1.438-.734-.86-1.79-1.438-3-1.438-2.2 0-4 1.8-4 4 0 1.844 1.293 3.34 3 3.797V56h-5v-1c0-2.035-.887-3.766-2.078-5.34-1.192-1.57-2.703-3.043-4.172-4.7C21.805 41.649 19 37.716 19 31c0-11.61 9.39-21 21-21zm-3 20c1.117 0 2 .883 2 2h2c0-1.117.883-2 2-2s2 .883 2 2-.883 2-2 2h-1v22h-4V34h-1c-1.117 0-2-.883-2-2s.883-2 2-2zm-6 28h18v2H37v2h12v2H37v2h11.816c-.406 1.168-1.5 2-2.816 2H34a2.966 2.966 0 01-2.816-2H35v-2h-4v-2h4v-2h-4v-2zm6.184 12h5.632c-.406 1.168-1.5 2-2.816 2a2.966 2.966 0 01-2.816-2z"/><path fill="#00D089" d="M17.375 7.371a1 1 0 11-.007 2 1 1 0 01.007-2zm45.254.004c.258 0 .512.098.707.29a1 1 0 11-1.414 0 .974.974 0 01.707-.29zm-41.723 3.531c.258 0 .516.098.707.297a.988.988 0 010 1.41.991.991 0 01-1.41 0 .991.991 0 010-1.41.98.98 0 01.703-.297zm38.188 0a.98.98 0 01.703.297.988.988 0 010 1.41.995.995 0 01-1.41 0 .991.991 0 010-1.41.971.971 0 01.707-.297zm-41.356 4.11a.99.99 0 01.367.152.998.998 0 01.278 1.387.997.997 0 01-1.387.273.996.996 0 01-.277-1.387c.23-.343.636-.496 1.02-.425zm44.524 0c.383-.07.789.082 1.02.425a.996.996 0 01-.278 1.387.997.997 0 01-1.387-.273.997.997 0 01.278-1.387.998.998 0 01.367-.152zM10.43 17.754c.129 0 .261.023.386.074.512.215.754.797.543 1.309a.997.997 0 01-1.308.539.999.999 0 01.379-1.922zm59.14 0a.999.999 0 01.379 1.922.997.997 0 01-1.308-.54 1.003 1.003 0 01.93-1.382zm-54.523 1.914a1.002 1.002 0 11.016 2 1.002 1.002 0 01-.016-2zm49.906 0c.387.004.758.234.918.617a1.003 1.003 0 01-1.851.766.997.997 0 01.543-1.305.983.983 0 01.39-.078zM13.715 24.75a1.002 1.002 0 01-.39 1.965 1.007 1.007 0 01-.79-1.18c.11-.539.637-.89 1.18-.785zm52.57 0a1.007 1.007 0 011.18.785 1.005 1.005 0 01-.79 1.18 1.002 1.002 0 01-.39-1.965zM8 30c.55 0 1 .45 1 1s-.45 1-1 1-1-.45-1-1 .45-1 1-1zm5 0c.55 0 1 .45 1 1s-.45 1-1 1-1-.45-1-1 .45-1 1-1zm54 0c.55 0 1 .45 1 1s-.45 1-1 1-1-.45-1-1 .45-1 1-1zm5 0c.55 0 1 .45 1 1s-.45 1-1 1-1-.45-1-1 .45-1 1-1zm-58.676 5.285a1.005 1.005 0 011.176.79 1 1 0 01-.785 1.175 1.007 1.007 0 01-1.18-.785 1.007 1.007 0 01.79-1.18zm52.957 0c.125-.023.258-.023.395 0 .543.11.894.637.789 1.18-.11.539-.637.89-1.18.785a1 1 0 01-.785-1.176c.082-.41.398-.707.781-.789zm-51.219 5.047a1.002 1.002 0 11-.015 2 1.002 1.002 0 01.015-2zm49.876 0c.128 0 .261.023.39.074.508.215.75.801.54 1.313a1 1 0 11-.93-1.387zM10.44 42.246c.391.004.758.234.918.617a1.003 1.003 0 01-.543 1.309.999.999 0 01-1.304-.543.999.999 0 01.93-1.383zm59.118 0a.999.999 0 01.93 1.383.999.999 0 01-1.305.543 1.003 1.003 0 01-.543-1.309c.16-.383.527-.613.918-.617zm-52.2 2.77c.383-.07.793.086 1.024.43a.997.997 0 01-.278 1.386 1 1 0 11-1.109-1.66c.113-.078.238-.129.363-.156zm45.282 0c.125.027.25.078.363.156a1 1 0 11-1.11 1.66.997.997 0 01-.277-1.387c.23-.343.64-.5 1.024-.43zm-41.735 4.078c.258 0 .512.093.707.293a.988.988 0 010 1.41.991.991 0 01-1.41 0 .991.991 0 010-1.41c.192-.2.45-.293.703-.293zm38.188 0c.254 0 .508.093.703.293a.988.988 0 010 1.41.991.991 0 01-1.41 0 .991.991 0 010-1.41.967.967 0 01.707-.293zm3.535 3.531c.258 0 .512.102.707.297a1 1 0 11-1.414 0 .998.998 0 01.707-.297zm-45.254.004a1 1 0 11-.007 2 1 1 0 01.007-2z"/></g></g></svg>